# AST/ASF file generated using VICON BodyLanguage
# -----------------------------------------------
:version 1.10
:name VICON
:units
  mass 1.0
  length 0.45
  angle deg
:documentation
   .ast/.asf automatically generated from VICON data using
   VICON BodyBuilder and BodyLanguage model FoxedUp or BRILLIANT.MOD
:root
   order TX TY TZ RX RY RZ
   axis XYZ
   position 0 0 0  
   orientation 0 0 0 
:bonedata
  begin
     id 1 
     name lhipjoint
     direction 0.522423 -0.726805 0.445902 
     length 2.25074 
     axis 0 0 0  XYZ
  end
  begin
     id 2 
     name lfemur
     direction 0.34202 -0.939693 0  
     length 6.54609  
     axis 0 0 20  XYZ
    dof rx ry rz
    limits (-160.0 20.0)
           (-70.0 70.0)
           (-60.0 70.0)
  end
  begin
     id 3 
     name ltibia
     direction 0.34202 -0.939693 0   
     length 7.7528   
     axis 0 0 20   XYZ
    dof rx
    limits (-10.0 170.0)
  end
  begin
     id 4 
     name lfoot
     direction 0.143696 -0.394801 0.90746   
     length 1.73269   
     axis -90 7.62852e-016 20   XYZ
    dof rx rz
    limits (-45.0 90.0)
           (-70.0 20.0)
  end
  begin
     id 5 
     name ltoes
     direction 1.53633e-011 -4.21912e-011 1   
     length 0.858383   
     axis -90 7.62852e-016 20   XYZ
    dof rx
    limits (-90.0 20.0)
  end
  begin
     id 6 
     name rhipjoint
     direction -0.515943 -0.73016 0.447961   
     length 2.2404  
     axis 0 0 0  XYZ 
  end
  begin
     id 7 
     name rfemur
     direction -0.34202 -0.939693 0   
     length 6.84377   
     axis 0 0 -20   XYZ
    dof rx ry rz
    limits (-160.0 20.0)
           (-70.0 70.0)
           (-70.0 60.0)
  end
  begin
     id 8 
     name rtibia
     direction -0.34202 -0.939693 0   
     length 7.57596   
     axis 0 0 -20   XYZ
    dof rx
    limits (-10.0 170.0)
 end
 begin
     id 9 
     name rfoot
     direction -0.0999372 -0.274575 0.956358   
     length 1.78783  
     axis -90 -7.62852e-016 -20   XYZ
    dof rx rz
    limits (-45.0 90.0)
           (-20.0 70.0)
  end
  begin
     id 10 
     name rtoes
     direction -1.53535e-011 -4.21895e-011 1   
     length 0.898614   
     axis -90 -7.62852e-016 -20   XYZ
    dof rx
    limits (-90.0 20.0)
  end
  begin
     id 11 
     name lowerback
     direction -0.011775 0.996164 -0.0867116   
     length 1.91499   
     axis 0 0 0   XYZ
    dof rx ry rz
    limits (-20.0 45.0)
           (-30.0 30.0)
           (-30.0 30.0)
  end
  begin
     id 12 
     name upperback
     direction -0.00189771 0.999673 -0.0254833   
     length 1.92213   
     axis 0 0 0   XYZ
    dof rx ry rz
    limits (-20.0 45.0)
           (-30.0 30.0)
           (-30.0 30.0)
  end
  begin
     id 13 
     name thorax
     direction 0.00335995 0.999878 0.0152401   
     length 1.93138   
     axis 0 0 0   XYZ
    dof rx ry rz
    limits (-20.0 45.0)
           (-30.0 30.0)
           (-30.0 30.0)
  end
  begin
     id 14 
     name lowerneck
     direction 0.00233191 0.998509 0.0545404   
     length 1.59408   
     axis 0 0 0   XYZ
    dof rx ry rz
    limits (-20.0 45.0)
           (-30.0 30.0)
           (-30.0 30.0)
  end
  begin
     id 15 
     name upperneck
     direction 0.07881 0.9956 -0.0506934   
     length 1.59344   
     axis 0 0 0   XYZ
    dof rx ry rz
    limits (-20.0 45.0)
           (-30.0 30.0)
           (-30.0 30.0)
  end
  begin
     id 16
     name head
     direction 0.0261681 0.999378 -0.0236299  
     length 1.60935  
     axis 0 0 0   XYZ
    dof rx ry rz
    limits (-20.0 45.0)
           (-30.0 30.0)
           (-30.0 30.0)
  end
  begin
     id 17 
     name lclavicle
     direction 0.96643 0.252035 0.0499195  
     length 3.82153  
     axis 0 0 0   XYZ
    dof ry rz
    limits (-20.0 10.0)
           (0.0 20.0)
  end
  begin
     id 18 
     name lhumerus
     direction 1 -4.48967e-011 -2.01614e-018   
     length 4.87796   
     axis 180 -30 -90   XYZ
    dof rx ry rz
    limits (-60.0 90.0)
           (-90.0 90.0)
           (-90.0 90.0)
  end
  begin
     id 19
     name lradius
     direction 1 -4.48958e-011 3.1409e-027   
     length 3.23169   
     axis 180 -30 -90   XYZ
    dof rx
    limits (-10.0 170.0)
  end
  begin
     id 20
     name lwrist
     direction 1 -4.48924e-011 1.0365e-027   
     length 1.61584   
     axis -2.56395e-016 90 90   XYZ
    dof ry
    limits (-180.0 0.0)
 end
  begin
     id 21 
     name lhand
     direction 1 -4.49055e-011 2.09488e-027   
     length 0.731324   
     axis -1.32723e-015 90 90   XYZ
    dof rx rz
    limits (-90.0 90.0)
           (-45.0 45.0)
  end
  begin
     id 22 
     name lfingers
     direction 1 -4.48935e-011 4.14981e-027   
     length 0.589612   
     axis -2.6545e-015 90 90   XYZ
    dof rx
    limits (0.0 90.0)
  end
  begin
     id 23
     name lthumb
     direction 0.707107 -6.35097e-011 0.707107   
     length 0.846569   
     axis -90 45 5.05613e-014   XYZ
    dof rx rz
    limits (-45.0 45.0)
           (-45.0 45.0)
  end
  begin
     id 24 
     name rclavicle
     direction -0.979337 0.201016 0.0221522   
     length 3.73827  
     axis 0 0 0   XYZ 
    dof ry rz
    limits (-10.0 20.0)
           (-20.0 0.0)
  end
  begin
     id 25 
     name rhumerus
     direction -1 -4.48971e-011 1.65907e-027  
     length 4.9143   
     axis 180 30 90   XYZ
    dof rx ry rz
    limits (-90.0 60.0)
           (-90.0 90.0)
           (-90.0 90.0)
  end
  begin
     id 26 
     name rradius
     direction -1 -4.4894e-011 2.17871e-028   
     length 3.29093   
     axis 180 30 90   XYZ
    dof rx
    limits (-10.0 170.0)
  end
  begin
     id 27 
     name rwrist
     direction -1 -4.48971e-011 1.04038e-027   
     length 1.64546   
     axis -2.56395e-016 -90 -90   XYZ
    dof ry
    limits (-180.0 0.0)
  end
  begin
     id 28
     name rhand
     direction -1 -4.49017e-011 2.08843e-027   
     length 0.54512   
     axis -1.32723e-015 -90 -90   XYZ
    dof rx rz
    limits (-90.0 90.0)
           (-45.0 45.0)
  end
  begin
     id 29
     name rfingers
     direction -1 -4.48918e-011 4.1439e-027   
     length 0.43949   
     axis -2.6545e-015 -90 -90   XYZ
    dof rx
    limits (0.0 90.0)
  end
  begin
     id 30
     name rthumb
     direction -0.707107 -6.35065e-011 0.707107   
     length 0.631022   
     axis -90 -45 -5.05613e-014   XYZ
    dof rx rz
    limits (-45.0 45.0)
           (-45.0 45.0)
  end
:hierarchy
  begin
    root lhipjoint rhipjoint lowerback
    lhipjoint lfemur
    lfemur ltibia
    ltibia lfoot
    lfoot ltoes
    rhipjoint rfemur
    rfemur rtibia
    rtibia rfoot
    rfoot rtoes
    lowerback upperback
    upperback thorax
    thorax lowerneck lclavicle rclavicle
    lowerneck upperneck
    upperneck head
    lclavicle lhumerus
    lhumerus lradius
    lradius lwrist
    lwrist lhand lthumb
    lhand lfingers
    rclavicle rhumerus
    rhumerus rradius
    rradius rwrist
    rwrist rhand rthumb
    rhand rfingers
  end

#!OML:ASF H:\BreakDance\Project 1\Capture day 1\Session 1\Male.ASF
:FULLY-SPECIFIED
:DEGREES
190
root 1.88115 14.2489 -1.14092 24.5126 -88.105 -28.0581
lowerback 10.7263 0.319884 -0.926082
upperback 4.78399 0.15298 -0.23415
thorax -1.03803 -0.00871149 0.262782
lowerneck -7.8016 -2.2278 -4.21505
upperneck 6.27804 -3.43196 10.2352
head 3.39873 -1.39335 3.62315
rclavicle 5.46658e-016 7.55382e-015
rhumerus 18.9452 4.88148 -76.7123
rradius 88.9002
rwrist 5.83709
rhand -1.86309 -50.9114
rfingers 7.12502
rthumb 23.8047 -79.4566
lclavicle 5.46658e-016 7.55382e-015
lhumerus 25.1836 -6.95607 78.1832
lradius 81.1094
lwrist -27.7311
lhand 13.15 -16.3592
lfingers 7.12502
lthumb 38.1075 9.41074
rfemur -36.408 -20.5489 4.86299
rtibia 69.0623
rfoot -25.4658 1.38375
rtoes -13.7681
lfemur -40.1853 20.2073 -6.95399
ltibia 72.5551
lfoot -29.6883 -3.94257
ltoes -16.389
191
root 1.88222 14.2466 -1.1407 24.4341 -88.0776 -27.9867
lowerback 10.731 0.335812 -0.881983
upperback 4.77565 0.17829 -0.251859
thorax -1.04933 0.00489157 0.216776
lowerneck -7.73066 -2.27209 -4.15831
upperneck 6.30393 -3.49991 10.2108
head 3.39837 -1.42816 3.60285
rclavicle -3.27995e-015 3.77691e-015
rhumerus 18.891 4.75574 -76.7626
rradius 88.9224
rwrist 5.98559
rhand -1.65313 -50.9468
rfingers 7.12502
rthumb 24.0061 -79.4656
lclavicle -3.27995e-015 3.77691e-015
lhumerus 25.1451 -7.03062 78.223
lradius 81.0811
lwrist -27.811
lhand 13.148 -16.3002
lfingers 7.12502
lthumb 38.1056 9.47019
rfemur -36.3971 -20.593 4.8626
rtibia 69.0766
rfoot -25.4733 1.4033
rtoes -14.9066
lfemur -40.1936 20.1857 -6.95851
ltibia 72.5267
lfoot -29.7478 -3.79521
ltoes -17.034
192
root 1.88427 14.2467 -1.14047 23.9576 -88.0913 -27.5272
lowerback 10.7537 0.33028 -0.929257
upperback 4.80225 0.165128 -0.231891
thorax -1.03413 -0.00326892 0.265482
lowerneck -7.89185 -2.26682 -4.11384
upperneck 6.41968 -3.4939 10.1077
head 3.45674 -1.42082 3.5631
rclavicle -4.96962e-015 2.98177e-015
rhumerus 18.934 4.78887 -76.7365
rradius 88.9184
rwrist 6.03504
rhand -1.70757 -50.9299
rfingers 7.12502
rthumb 23.9538 -79.4556
lclavicle -4.96962e-015 2.98177e-015
lhumerus 25.1303 -6.94209 78.2825
lradius 81.0965
lwrist -27.9593
lhand 13.1107 -16.3277
lfingers 7.12502
lthumb 38.0704 9.45229
rfemur -36.3722 -20.594 4.8394
rtibia 69.0756
rfoot -25.4929 1.40725
rtoes -14.9546
lfemur -40.1767 20.1934 -6.98871
ltibia 72.4905
lfoot -29.6567 -3.62014
ltoes -17.3841
193
root 1.88637 14.2496 -1.1394 21.2754 -88.1206 -24.8362
lowerback 10.7694 0.320826 -1.03758
upperback 4.80796 0.141212 -0.24034
thorax -1.03672 -0.0167521 0.320378
lowerneck -7.95905 -2.24551 -4.08371
upperneck 6.46379 -3.46795 10.0762
head 3.47817 -1.40568 3.54953
rclavicle 7.45443e-016 -2.18663e-015
rhumerus 18.9596 4.84407 -76.7046
rradius 88.9472
rwrist 6.11107
rhand -1.58725 -50.8571
rfingers 7.12502
rthumb 24.0692 -79.3676
lclavicle 7.45443e-016 -2.18663e-015
lhumerus 25.1338 -6.87801 78.2707
lradius 81.0891
lwrist -27.9715
lhand 13.0556 -16.3948
lfingers 7.12502
lthumb 38.0184 9.3994
rfemur -36.3732 -20.6289 4.73267
rtibia 69.0596
rfoot -25.4713 1.4202
rtoes -13.8713
lfemur -40.1834 20.1405 -7.10652
ltibia 72.4581
lfoot -29.5567 -3.53856
ltoes -17.0457
194
root 1.88854 14.2517 -1.14071 21.6921 -88.1183 -25.2403
lowerback 10.7923 0.323 -1.05853
upperback 4.7841 0.142842 -0.223338
thorax -1.07407 -0.0157149 0.349525
lowerneck -7.95012 -2.22925 -4.03695
upperneck 6.51899 -3.45141 10.0262
head 3.49029 -1.39744 3.5275
rclavicle -3.47873e-015 -7.35503e-015
rhumerus 18.9123 4.8714 -76.6884
rradius 88.9908
rwrist 6.21118
rhand -1.48898 -50.8335
rfingers 7.12502
rthumb 24.1634 -79.3315
lclavicle -3.47873e-015 -7.35503e-015
lhumerus 25.1013 -6.86678 78.2579
lradius 81.0602
lwrist -27.9225
lhand 13.0023 -16.4614
lfingers 7.12502
lthumb 37.968 9.34648
rfemur -36.3893 -20.6073 4.76786
rtibia 69.0378
rfoot -25.4613 1.35239
rtoes -13.3947
lfemur -40.2134 20.1335 -7.09048
ltibia 72.4338
lfoot -29.5036 -3.61454
ltoes -16.6644
195
root 1.88939 14.2529 -1.14367 23.1482 -88.1279 -26.7056
lowerback 10.7873 0.343371 -1.06741
upperback 4.78663 0.169517 -0.196692
thorax -1.06916 -0.00282882 0.379025
lowerneck -7.91822 -2.20693 -3.9848
upperneck 6.52178 -3.42387 9.9813
head 3.48211 -1.38523 3.50685
rclavicle 1.98785e-015 2.78299e-015
rhumerus 18.8721 4.87575 -76.6573
rradius 89.0005
rwrist 6.20953
rhand -1.67987 -50.8669
rfingers 7.12502
rthumb 23.9804 -79.3891
lclavicle 1.98785e-015 2.78299e-015
lhumerus 25.0712 -6.85952 78.2911
lradius 81.0489
lwrist -27.9629
lhand 13.0121 -16.4798
lfingers 7.12502
lthumb 37.9773 9.32562
rfemur -36.4078 -20.5442 4.8344
rtibia 69.0266
rfoot -25.4596 1.33853
rtoes -14.1886
lfemur -40.2021 20.2 -7.03555
ltibia 72.4203
lfoot -29.5225 -3.70454
ltoes -16.7649
196
root 1.89152 14.2547 -1.14323 20.4558 -88.1507 -23.9795
lowerback 10.7578 0.337314 -1.12766
upperback 4.79304 0.155057 -0.241953
thorax -1.04628 -0.0105629 0.367806
lowerneck -7.98069 -2.1913 -3.98905
upperneck 6.56652 -3.41118 10.0399
head 3.50626 -1.37424 3.52603
rclavicle 1.19271e-015 2.78299e-015
rhumerus 18.8931 4.88328 -76.6887
rradius 88.9798
rwrist 6.12893
rhand -1.98239 -51.0594
rfingers 7.12502
rthumb 23.6903 -79.6195
lclavicle 1.19271e-015 2.78299e-015
lhumerus 25.0836 -6.85445 78.2695
lradius 81.0051
lwrist -27.9209
lhand 12.951 -16.4708
lfingers 7.12502
lthumb 37.9196 9.35022
rfemur -36.4636 -20.5869 4.73738
rtibia 69.0257
rfoot -25.4349 1.40475
rtoes -14.8876
lfemur -40.2478 20.1818 -7.17379
ltibia 72.4228
lfoot -29.5346 -3.57729
ltoes -17.0775
197
root 1.89587 14.25 -1.14345 19.3232 -88.1526 -22.8307
lowerback 10.7974 0.334007 -1.12983
upperback 4.78729 0.148933 -0.2749
thorax -1.07365 -0.0132765 0.335597
lowerneck -8.0215 -2.21745 -4.10906
upperneck 6.6266 -3.45086 10.1808
head 3.53862 -1.38875 3.58692
rclavicle -3.32964e-015 -3.37934e-015
rhumerus 18.897 4.86704 -76.7504
rradius 88.9724
rwrist 6.09389
rhand -2.20945 -51.2513
rfingers 7.12502
rthumb 23.4725 -79.8395
lclavicle -3.32964e-015 -3.37934e-015
lhumerus 25.1327 -6.90292 78.2251
lradius 80.912
lwrist -27.7101
lhand 12.8027 -16.4831
lfingers 7.12502
lthumb 37.7795 9.37581
rfemur -36.4863 -20.6319 4.71115
rtibia 69.0491
rfoot -25.4412 1.30524
rtoes -14.8703
lfemur -40.2983 20.1408 -7.20868
ltibia 72.4594
lfoot -29.5342 -3.61436
ltoes -16.8338
198
root 1.899 14.2469 -1.14439 21.5466 -88.1273 -25.1055
lowerback 10.8674 0.34701 -1.04561
upperback 4.80014 0.172596 -0.256277
thorax -1.09855 -0.00106958 0.30466
lowerneck -7.98845 -2.23839 -4.1612
upperneck 6.64946 -3.48459 10.2672
head 3.54499 -1.40379 3.62054
rclavicle 7.50412e-015 2.78299e-015
rhumerus 18.892 4.83931 -76.7153
rradius 88.9719
rwrist 6.08316
rhand -2.29469 -51.1832
rfingers 7.12502
rthumb 23.3907 -79.7818
lclavicle 7.50412e-015 2.78299e-015
lhumerus 25.1737 -6.96747 78.2119
lradius 80.8685
lwrist -27.5666
lhand 12.7567 -16.4759
lfingers 7.12502
lthumb 37.736 9.3947
rfemur -36.4119 -20.638 4.79794
rtibia 69.0518
rfoot -25.4888 1.17758
rtoes -15.1145
lfemur -40.2528 20.1381 -7.0816
ltibia 72.4844
lfoot -29.5729 -3.77127
ltoes -16.4899
199
root 1.89991 14.2515 -1.14286 22.3841 -88.11 -25.96
lowerback 10.8801 0.343028 -0.981759
upperback 4.80542 0.173221 -0.252716
thorax -1.09984 -0.000143517 0.272335
lowerneck -7.94841 -2.24787 -4.12475
upperneck 6.64024 -3.50093 10.2565
head 3.53598 -1.41287 3.61046
rclavicle -1.54058e-015 9.93923e-016
rhumerus 18.9054 4.85241 -76.6762
rradius 88.9501
rwrist 6.05305
rhand -2.30162 -51.0765
rfingers 7.12502
rthumb 23.3841 -79.6759
lclavicle -1.54058e-015 9.93923e-016
lhumerus 25.2008 -6.96524 78.2031
lradius 80.8352
lwrist -27.5562
lhand 12.7766 -16.4792
lfingers 7.12502
lthumb 37.7548 9.38631
rfemur -36.3865 -20.6576 4.82485
rtibia 69.026
rfoot -25.5114 1.19058
rtoes -15.2756
lfemur -40.2411 20.1271 -7.05664
ltibia 72.4851
lfoot -29.6276 -3.78371
ltoes -16.6169
200
root 1.90005 14.2515 -1.14258 22.528 -88.1113 -26.0899
lowerback 10.9019 0.328171 -0.968475
upperback 4.78983 0.155138 -0.246437
thorax -1.12761 -0.00866467 0.273416
lowerneck -7.84565 -2.22367 -4.231
upperneck 6.52615 -3.45945 10.3707
head 3.48538 -1.39591 3.66625
rclavicle -4.47266e-016 3.97569e-016
rhumerus 18.92 4.90389 -76.6661
rradius 88.9235
rwrist 6.00933
rhand -2.2857 -51.095
rfingers 7.12502
rthumb 23.3993 -79.6924
lclavicle -4.47266e-016 3.97569e-016
lhumerus 25.1958 -6.91276 78.2138
lradius 80.8046
lwrist -27.5367
lhand 12.7525 -16.4547
lfingers 7.12502
lthumb 37.7321 9.41697
rfemur -36.4229 -20.684 4.83047
rtibia 69.0276
rfoot -25.4893 1.20317
rtoes -15.2557
lfemur -40.279 20.1321 -7.06241
ltibia 72.502
lfoot -29.6737 -3.81198
ltoes -16.7142
